Genre:Action | Comedy | Fantasy
Language:English
IMDb:http://www.imdb.com/title/tt1592287/
Source:720p.BluRay.x264-SKmbr Thanks!

ormat : AVI
Format/Info : Audio Video Interleave
Format profile : OpenDML
File size : 2.06 GiB
Duration : 2h 45mn
Overall bit rate : 1 781 Kbps

Video
ID : 0
Format : MPEG-4 Visual
Format profile : Advanced Simple@L5
Format settings, BVOP : Yes
Format settings, QPel : No
Format settings, GMC : No warppoints
Format settings, Matrix : Default (H.263)
Codec ID : XVID
Codec ID/Hint : XviD
Duration : 2h 45mn
Bit rate : 1 321 Kbps
Width : 640 pixels
Height : 360 pixels
Display aspect ratio : 16:9
Frame rate : 23.976 fps
Color space : YUV
Chroma subsampling : 4:2:0
Bit depth : 8 bits
Scan type : Progressive
Bits/(Pixel*Frame) : 0.239
Stream size : 1.53 GiB (74%)
Writing library : XviD 1.2.1 (UTC 2008-12-04)

Audio
ID : 1
Format : AC-3
Format/Info : Audio Coding 3
Mode extension : CM (complete main)
Codec ID : 2000
Duration : 2h 45mn
Bit rate mode : Constant
Bit rate : 448 Kbps
Channel(s) : 6 channels
Channel positions : Front: L C R, Side: L R, LFE
Sampling rate : 48.0 KHz
Bit depth : 16 bits
Stream size : 531 MiB (25%)
Alignment : Aligned on interleaves
Interleave, duration : 42 ms (1.00 video frame)
Interleave, preload duration : 512 ms


Plot:
Dorothy Gale discovers that her best selling novels are actually based on suppressed childhood memories of her time in Oz, and that she may be in danger of experiencing it all over again

Screens
 
http://postimg.com/image/57000/photo-56391.jpg
 
http://postimg.com/image/57000/photo-56392.jpg
 
http://postimg.com/image/57000/photo-56393.jpg
 
http://postimg.com/image/57000/photo-56394.jpg

